# Blender v2.82 (sub 7) OBJ File: 'lilypad.blend'
# www.blender.org
mtllib lilypad.mtl
o pCylinder1_Mesh
v 0.171345 4.481995 -0.667176
v 0.171355 4.187387 -1.266905
v 0.171355 3.727844 -1.743109
v 0.171355 3.148787 -2.048851
v 0.171355 2.506898 -2.154202
v 0.171355 1.865009 -2.048851
v 0.171355 1.285952 -1.743109
v 0.171355 0.826410 -1.266904
v 0.171355 0.531366 -0.666852
v 0.171355 0.429701 -0.001689
v 0.171355 0.531366 0.663474
v 0.171355 0.826410 1.263526
v 0.171363 1.285952 1.739730
v 0.171611 1.865009 2.045472
v 0.174376 2.506463 2.150500
v 0.182808 3.132399 2.033780
v 0.163920 3.515312 1.591383
v 0.147490 3.178321 0.514029
v 0.166180 4.278648 0.502650
v 0.170963 4.568148 -0.014010
v 0.062771 3.202568 0.532452
v 0.193066 2.462396 -0.034736
v 0.060850 2.470050 -0.029037
v 0.098074 4.702776 -0.739389
v 0.064130 4.441321 -0.652863
v 0.098124 4.375033 -1.404337
v 0.064134 4.152380 -1.240148
v 0.098125 3.864877 -1.932958
v 0.064133 3.702484 -1.706357
v 0.098124 3.222054 -2.272369
v 0.064133 3.135581 -2.005681
v 0.098124 2.509479 -2.389321
v 0.064133 2.507165 -2.108821
v 0.098124 1.796905 -2.272368
v 0.064133 1.878749 -2.005681
v 0.098125 1.154082 -1.932958
v 0.064133 1.311847 -1.706357
v 0.098124 0.643935 -1.404314
v 0.064133 0.861951 -1.240148
v 0.098124 0.316401 -0.738183
v 0.064133 0.573100 -0.652691
v 0.098125 0.203540 0.000228
v 0.064133 0.473569 -0.001490
v 0.098125 0.316401 0.738639
v 0.064133 0.573100 0.649712
v 0.098125 0.643935 1.404769
v 0.064134 0.861951 1.237169
v 0.098128 1.154082 1.933413
v 0.064134 1.311847 1.703377
v 0.098230 1.796887 2.272840
v 0.064134 1.878749 2.002701
v 0.099080 2.508438 2.390366
v 0.064152 2.507035 2.105984
v 0.100133 3.200947 2.280697
v 0.064223 3.130219 2.008446
v 0.061895 3.625299 1.785152
v 0.089651 3.677641 1.983881
v 0.056114 3.747249 1.741095
v 0.061985 4.492208 0.548743
v 0.056243 4.487052 0.686126
v 0.089993 4.690225 0.539705
v 0.097189 4.816049 -0.022892
v 0.063974 4.544371 -0.008536
v 0.072882 3.712445 1.862488
v 0.073118 4.588638 0.612916
v 0.097632 4.759413 -0.381140
v 0.098099 4.538904 -1.071863
v 0.098124 4.119955 -1.668648
v 0.098125 3.543465 -2.102664
v 0.098124 2.865767 -2.330845
v 0.098124 2.153192 -2.330845
v 0.098125 1.475493 -2.102663
v 0.098124 0.899009 -1.668636
v 0.098124 0.480168 -1.071248
v 0.098125 0.259970 -0.368978
v 0.098125 0.259970 0.369433
v 0.098125 0.480168 1.071704
v 0.098126 0.899009 1.669091
v 0.098179 1.475484 2.103126
v 0.098655 2.152662 2.331603
v 0.099606 2.854692 2.335532
v 0.094892 3.439294 2.132289
v 0.093591 4.753137 0.258407
vt 0.575000 0.312500
vt 0.587500 0.312500
vt 0.587500 0.688440
vt 0.575264 0.688440
vt 0.575132 0.594464
vt 0.575000 0.500489
vt 0.600000 0.312500
vt 0.600000 0.500489
vt 0.599868 0.594464
vt 0.599737 0.688440
vt 0.626409 0.064408
vt 0.648603 0.107966
vt 0.500000 0.150000
vt 0.591842 0.029841
vt 0.548284 0.007647
vt 0.500000 -0.000000
vt 0.451716 0.007647
vt 0.408159 0.029841
vt 0.373591 0.064409
vt 0.351397 0.107966
vt 0.343750 0.156250
vt 0.351397 0.204534
vt 0.373591 0.248091
vt 0.408159 0.282659
vt 0.451716 0.304853
vt 0.500000 0.312500
vt 0.548284 0.304853
vt 0.591841 0.282659
vt 0.626409 0.248091
vt 0.648603 0.204534
vt 0.656250 0.156250
vt 0.626409 0.751908
vt 0.648135 0.794550
vt 0.644713 0.796566
vt 0.500000 0.837500
vt 0.589437 0.720487
vt 0.592573 0.718073
vt 0.625000 0.500489
vt 0.624836 0.688440
vt 0.612663 0.688440
vt 0.612500 0.500489
vt 0.618750 0.500489
vt 0.375164 0.688440
vt 0.375000 0.500489
vt 0.381250 0.500489
vt 0.387500 0.500489
vt 0.387336 0.688440
vt 0.387664 0.688440
vt 0.393750 0.500489
vt 0.400000 0.500489
vt 0.399836 0.688440
vt 0.400164 0.688440
vt 0.406250 0.500489
vt 0.412500 0.500489
vt 0.412336 0.688440
vt 0.412664 0.688440
vt 0.418750 0.500489
vt 0.425000 0.500489
vt 0.424836 0.688440
vt 0.425164 0.688440
vt 0.431250 0.500489
vt 0.437500 0.500489
vt 0.437336 0.688440
vt 0.437664 0.688440
vt 0.443750 0.500489
vt 0.450000 0.500489
vt 0.449836 0.688440
vt 0.450164 0.688440
vt 0.456250 0.500489
vt 0.462500 0.500489
vt 0.462336 0.688440
vt 0.462664 0.688440
vt 0.468750 0.500489
vt 0.475000 0.500489
vt 0.474836 0.688440
vt 0.475164 0.688440
vt 0.481250 0.500489
vt 0.487500 0.500489
vt 0.487336 0.688440
vt 0.487664 0.688440
vt 0.493750 0.500489
vt 0.500000 0.500489
vt 0.499836 0.688440
vt 0.500163 0.688440
vt 0.506250 0.500489
vt 0.512500 0.500489
vt 0.512336 0.688440
vt 0.512663 0.688440
vt 0.518750 0.500489
vt 0.525000 0.500489
vt 0.524836 0.688440
vt 0.525163 0.688440
vt 0.531250 0.500489
vt 0.537500 0.500489
vt 0.537336 0.688440
vt 0.537663 0.688440
vt 0.543750 0.500489
vt 0.550000 0.500489
vt 0.549836 0.688440
vt 0.550163 0.688440
vt 0.556250 0.500489
vt 0.562500 0.500489
vt 0.562336 0.688440
vt 0.562663 0.688440
vt 0.568750 0.500489
vt 0.574836 0.688440
vt 0.600163 0.688440
vt 0.606250 0.500489
vt 0.612336 0.688440
vt 0.375000 0.312500
vt 0.387500 0.312500
vt 0.400000 0.312500
vt 0.412500 0.312500
vt 0.425000 0.312500
vt 0.437500 0.312500
vt 0.450000 0.312500
vt 0.462500 0.312500
vt 0.475000 0.312500
vt 0.487500 0.312500
vt 0.500000 0.312500
vt 0.512500 0.312500
vt 0.525000 0.312500
vt 0.537500 0.312500
vt 0.550000 0.312500
vt 0.562500 0.312500
vt 0.612500 0.312500
vt 0.625000 0.312500
vt 0.644712 0.890606
vt 0.623100 0.933024
vt 0.589437 0.966686
vt 0.547020 0.988299
vt 0.500000 0.995746
vt 0.452980 0.988299
vt 0.410563 0.966686
vt 0.376900 0.933024
vt 0.355288 0.890606
vt 0.347840 0.843586
vt 0.355288 0.796566
vt 0.376900 0.754149
vt 0.410563 0.720487
vt 0.452980 0.698874
vt 0.500000 0.691427
vt 0.547020 0.698874
vt 0.652160 0.843586
vt 0.599626 0.688440
vn 0.7310 0.6455 -0.2213
vn 0.8200 0.4013 0.4081
vn 0.8403 0.4076 0.3575
vn 0.7431 -0.0132 0.6691
vn 0.9999 0.0084 -0.0059
vn 0.9999 0.0099 -0.0027
vn 0.9999 -0.0095 -0.0074
vn 0.9999 0.0061 -0.0082
vn 0.9999 0.0033 -0.0097
vn 0.9999 0.0000 -0.0102
vn 0.9999 -0.0033 -0.0098
vn 0.9999 -0.0063 -0.0084
vn 0.9999 -0.0087 -0.0061
vn 0.9999 -0.0102 -0.0032
vn 0.9999 -0.0107 0.0000
vn 0.9999 -0.0101 0.0032
vn 0.9999 -0.0085 0.0060
vn 0.9999 -0.0063 0.0081
vn 0.9999 -0.0054 0.0088
vn 0.9999 -0.0088 0.0087
vn 1.0000 0.0097 0.0018
vn 0.9992 0.0388 0.0005
vn 0.9976 -0.0011 0.0687
vn 0.9998 0.0168 0.0142
vn 0.9999 0.0104 0.0060
vn -0.9993 0.0178 -0.0330
vn -1.0000 -0.0005 -0.0049
vn -0.9041 -0.1416 0.4032
vn -0.9996 0.0217 0.0176
vn -0.8699 0.3983 -0.2909
vn -1.0000 -0.0051 0.0010
vn -0.9925 0.1161 -0.0375
vn -0.9925 0.1161 -0.0372
vn -0.9921 0.1256 -0.0036
vn -0.9921 0.1253 -0.0048
vn -0.9924 0.1212 -0.0200
vn -0.9923 0.1109 -0.0547
vn -0.9925 0.0996 -0.0703
vn -0.9925 0.0999 -0.0699
vn -0.9924 0.0885 -0.0854
vn -0.9926 0.0725 -0.0969
vn -0.9926 0.0730 -0.0966
vn -0.9925 0.0570 -0.1080
vn -0.9927 0.0382 -0.1141
vn -0.9927 0.0385 -0.1140
vn -0.9926 0.0197 -0.1201
vn -0.9927 0.0001 -0.1203
vn -0.9927 -0.0001 -0.1203
vn -0.9925 -0.0198 -0.1204
vn -0.9927 -0.0383 -0.1148
vn -0.9927 -0.0389 -0.1146
vn -0.9924 -0.0575 -0.1088
vn -0.9925 -0.0731 -0.0980
vn -0.9925 -0.0739 -0.0974
vn -0.9922 -0.0896 -0.0865
vn -0.9923 -0.1010 -0.0714
vn -0.9923 -0.1015 -0.0707
vn -0.9921 -0.1129 -0.0555
vn -0.9922 -0.1189 -0.0375
vn -0.9922 -0.1190 -0.0371
vn -0.9920 -0.1250 -0.0191
vn -0.9922 -0.1249 0.0001
vn -0.9922 -0.1249 -0.0001
vn -0.9920 -0.1248 0.0191
vn -0.9923 -0.1184 0.0375
vn -0.9923 -0.1186 0.0368
vn -0.9921 -0.1123 0.0552
vn -0.9924 -0.1002 0.0709
vn -0.9924 -0.1008 0.0701
vn -0.9924 -0.0888 0.0857
vn -0.9926 -0.0724 0.0972
vn -0.9926 -0.0733 0.0965
vn -0.9925 -0.0569 0.1079
vn -0.9927 -0.0377 0.1145
vn -0.9927 -0.0384 0.1142
vn -0.9925 -0.0193 0.1207
vn -0.9925 0.0006 0.1222
vn -0.9925 0.0004 0.1222
vn -0.9921 0.0203 0.1236
vn -0.9919 0.0347 0.1222
vn -0.9919 0.0362 0.1221
vn -0.9914 0.0515 0.1206
vn -0.9915 0.1299 0.0125
vn 0.9551 0.2831 -0.0875
vn 0.9539 0.2460 -0.1720
vn 0.9539 0.2453 -0.1729
vn 0.9527 0.2728 -0.1342
vn 0.9551 0.2829 -0.0883
vn 0.9544 0.1799 -0.2383
vn 0.9544 0.1790 -0.2389
vn 0.9530 0.2179 -0.2103
vn 0.9548 0.0949 -0.2817
vn 0.9548 0.0945 -0.2818
vn 0.9536 0.1406 -0.2663
vn 0.9548 -0.0004 -0.2974
vn 0.9548 0.0003 -0.2974
vn 0.9538 0.0487 -0.2965
vn 0.9542 -0.0962 -0.2833
vn 0.9542 -0.0946 -0.2838
vn 0.9535 -0.0488 -0.2975
vn 0.9532 -0.1826 -0.2409
vn 0.9533 -0.1808 -0.2421
vn 0.9527 -0.1420 -0.2689
vn 0.9522 -0.2506 -0.1747
vn 0.9522 -0.2494 -0.1762
vn 0.9516 -0.2212 -0.2134
vn 0.9515 -0.2937 -0.0917
vn 0.9515 -0.2934 -0.0926
vn 0.9507 -0.2784 -0.1369
vn 0.9514 -0.3081 -0.0003
vn 0.9514 -0.3081 0.0002
vn 0.9502 -0.3081 -0.0471
vn 0.9519 -0.2925 0.0908
vn 0.9520 -0.2919 0.0925
vn 0.9504 -0.3074 0.0470
vn 0.9530 -0.2487 0.1728
vn 0.9531 -0.2471 0.1749
vn 0.9513 -0.2765 0.1360
vn 0.9543 -0.1809 0.2379
vn 0.9543 -0.1786 0.2394
vn 0.9526 -0.2189 0.2112
vn 0.9549 -0.0968 0.2809
vn 0.9549 -0.0950 0.2815
vn 0.9538 -0.1404 0.2654
vn 0.9544 0.0066 0.2984
vn 0.9544 0.0068 0.2983
vn 0.9537 -0.0419 0.2978
vn 0.9658 0.1181 0.2310
vn 0.9643 0.1059 0.2428
vn 0.9521 0.0413 0.3030
vn 0.9682 0.1812 0.1722
vn 0.9716 0.2169 0.0943
vn 0.9673 0.2512 0.0341
vn 0.9661 0.2572 0.0233
vn 0.9554 0.2925 -0.0417
vn -1.0000 0.0015 -0.0006
vn -1.0000 0.0013 -0.0009
vn -1.0000 0.0009 -0.0013
vn -1.0000 0.0005 -0.0015
vn -1.0000 0.0000 -0.0016
vn -1.0000 -0.0005 -0.0015
vn -1.0000 -0.0010 -0.0013
vn -1.0000 -0.0013 -0.0009
vn -1.0000 -0.0016 -0.0005
vn -1.0000 -0.0016 0.0000
vn -1.0000 -0.0016 0.0005
vn -1.0000 -0.0013 0.0009
vn -1.0000 -0.0009 0.0013
vn -1.0000 -0.0005 0.0015
vn -1.0000 0.0001 0.0015
vn -1.0000 -0.0016 0.0022
vn -1.0000 0.0015 -0.0020
vn -0.9905 0.0028 0.1376
vn -0.9897 0.1383 -0.0362
usemtl lambert1
s 1
f 17/1/1 18/2/2 21/3/3 58/4/1 64/5/1 57/6/1
f 18/2/2 19/7/4 61/8/4 65/9/4 60/10/4 21/3/3
f 2/11/5 1/12/6 22/13/7
f 3/14/8 2/11/5 22/13/7
f 4/15/9 3/14/8 22/13/7
f 5/16/10 4/15/9 22/13/7
f 6/17/11 5/16/10 22/13/7
f 7/18/12 6/17/11 22/13/7
f 8/19/13 7/18/12 22/13/7
f 9/20/14 8/19/13 22/13/7
f 10/21/15 9/20/14 22/13/7
f 11/22/16 10/21/15 22/13/7
f 12/23/17 11/22/16 22/13/7
f 13/24/18 12/23/17 22/13/7
f 14/25/19 13/24/18 22/13/7
f 15/26/20 14/25/19 22/13/7
f 16/27/21 15/26/20 22/13/7
f 17/28/22 16/27/21 22/13/7
f 18/29/23 17/28/22 22/13/7
f 19/30/24 18/29/23 22/13/7
f 20/31/25 19/30/24 22/13/7
f 1/12/6 20/31/25 22/13/7
f 21/32/26 60/33/27 59/34/28 23/35/29
f 56/36/30 58/37/31 21/32/26 23/35/29
f 24/38/32 25/39/33 63/40/34 62/41/35 66/42/36
f 25/43/33 24/44/32 67/45/37 26/46/38 27/47/39
f 27/48/39 26/46/38 68/49/40 28/50/41 29/51/42
f 29/52/42 28/50/41 69/53/43 30/54/44 31/55/45
f 31/56/45 30/54/44 70/57/46 32/58/47 33/59/48
f 33/60/48 32/58/47 71/61/49 34/62/50 35/63/51
f 35/64/51 34/62/50 72/65/52 36/66/53 37/67/54
f 37/68/54 36/66/53 73/69/55 38/70/56 39/71/57
f 39/72/57 38/70/56 74/73/58 40/74/59 41/75/60
f 41/76/60 40/74/59 75/77/61 42/78/62 43/79/63
f 43/80/63 42/78/62 76/81/64 44/82/65 45/83/66
f 45/84/66 44/82/65 77/85/67 46/86/68 47/87/69
f 47/88/69 46/86/68 78/89/70 48/90/71 49/91/72
f 49/92/72 48/90/71 79/93/73 50/94/74 51/95/75
f 51/96/75 50/94/74 80/97/76 52/98/77 53/99/78
f 53/100/78 52/98/77 81/101/79 54/102/80 55/103/81
f 55/104/81 54/102/80 82/105/82 57/6/82 56/106/82
f 59/107/83 61/8/83 83/108/83 62/41/35 63/109/34
f 1/110/84 2/111/85 26/46/86 67/45/87 24/44/88
f 2/111/85 3/112/89 28/50/90 68/49/91 26/46/86
f 3/112/89 4/113/92 30/54/93 69/53/94 28/50/90
f 4/113/92 5/114/95 32/58/96 70/57/97 30/54/93
f 5/114/95 6/115/98 34/62/99 71/61/100 32/58/96
f 6/115/98 7/116/101 36/66/102 72/65/103 34/62/99
f 7/116/101 8/117/104 38/70/105 73/69/106 36/66/102
f 8/117/104 9/118/107 40/74/108 74/73/109 38/70/105
f 9/118/107 10/119/110 42/78/111 75/77/112 40/74/108
f 10/119/110 11/120/113 44/82/114 76/81/115 42/78/111
f 11/120/113 12/121/116 46/86/117 77/85/118 44/82/114
f 12/121/116 13/122/119 48/90/120 78/89/121 46/86/117
f 13/122/119 14/123/122 50/94/123 79/93/124 48/90/120
f 14/123/122 15/124/125 52/98/126 80/97/127 50/94/123
f 15/124/125 16/125/128 54/102/129 81/101/130 52/98/126
f 16/125/128 17/1/131 57/6/131 82/105/131 54/102/129
f 19/7/132 20/126/133 62/41/134 83/108/132 61/8/132
f 20/126/133 1/127/84 24/38/88 66/42/135 62/41/134
f 25/128/136 27/129/137 23/35/29
f 27/129/137 29/130/138 23/35/29
f 29/130/138 31/131/139 23/35/29
f 31/131/139 33/132/140 23/35/29
f 33/132/140 35/133/141 23/35/29
f 35/133/141 37/134/142 23/35/29
f 37/134/142 39/135/143 23/35/29
f 39/135/143 41/136/144 23/35/29
f 41/136/144 43/137/145 23/35/29
f 43/137/145 45/138/146 23/35/29
f 45/138/146 47/139/147 23/35/29
f 47/139/147 49/140/148 23/35/29
f 49/140/148 51/141/149 23/35/29
f 51/141/149 53/142/150 23/35/29
f 53/142/150 55/143/151 23/35/29
f 55/143/151 56/36/30 23/35/29
f 59/34/28 63/144/152 23/35/29
f 63/144/152 25/128/136 23/35/29
f 56/106/153 57/6/153 64/5/153 58/4/153
f 59/145/154 60/10/154 65/9/154 61/8/154
